<?xml version="1.0" encoding="UTF-8" standalone="no"?>
<!-- Created with Inkscape (http://www.inkscape.org/) -->
<svg
   xmlns:dc="http://purl.org/dc/elements/1.1/"
   xmlns:cc="http://web.resource.org/cc/"
   xmlns:rdf="http://www.w3.org/1999/02/22-rdf-syntax-ns#"
   xmlns:svg="http://www.w3.org/2000/svg"
   xmlns="http://www.w3.org/2000/svg"
   xmlns:sodipodi="http://inkscape.sourceforge.net/DTD/sodipodi-0.dtd"
   xmlns:inkscape="http://www.inkscape.org/namespaces/inkscape"
   width="210mm"
   height="297mm"
   id="svg2"
   sodipodi:version="0.32"
   inkscape:version="0.41.1"
   sodipodi:docbase="/srv/www/jforg/trunk/gfx"
   sodipodi:docname="jforg_logo.svg"
   inkscape:export-filename="/home/daniel/jb_logo_klein.png"
   inkscape:export-xdpi="69.220001"
   inkscape:export-ydpi="69.220001">
  <defs
     id="defs3" />
  <sodipodi:namedview
     id="base"
     pagecolor="#ffffff"
     bordercolor="#666666"
     borderopacity="1.0"
     inkscape:pageopacity="0.0"
     inkscape:pageshadow="2"
     inkscape:zoom="2.0453348"
     inkscape:cx="191.69407"
     inkscape:cy="894.82206"
     inkscape:document-units="px"
     inkscape:current-layer="layer1"
     inkscape:window-width="1272"
     inkscape:window-height="945"
     inkscape:window-x="0"
     inkscape:window-y="0" />
  <metadata
     id="metadata4">
    <rdf:RDF
       id="RDF5">
      <cc:Work
         rdf:about=""
         id="Work6">
        <dc:format
           id="format7">image/svg+xml</dc:format>
        <dc:type
           id="type9"
           rdf:resource="http://purl.org/dc/dcmitype/StillImage" />
      </cc:Work>
    </rdf:RDF>
  </metadata>
  <g
     inkscape:label="Layer 1"
     inkscape:groupmode="layer"
     id="layer1">
    <rect
       y="11.657167"
       x="16.071424"
       height="139.74976"
       width="139.85707"
       id="rect1319"
       style="fill:#4b72b0;fill-opacity:1.0000000;stroke:none;stroke-opacity:1.0000000" />
    <path
       sodipodi:type="arc"
       style="fill:#80a7d8;fill-opacity:1.0000000;fill-rule:evenodd;stroke:#80a7d8;stroke-opacity:1.0000000"
       id="path12773"
       sodipodi:cx="31.431248"
       sodipodi:cy="32.164730"
       sodipodi:rx="21.292135"
       sodipodi:ry="9.7335472"
       d="M 52.723383 32.164730 A 21.292135 9.7335472 0 1 1  10.139112,32.164730 A 21.292135 9.7335472 0 1 1  52.723383 32.164730 z"
       transform="matrix(2.774351,0.000000,0.000000,6.107364,0.201820,-113.3273)" />
    <path
       style="fill:#000000;fill-opacity:0.39215687;fill-rule:evenodd;stroke:none;stroke-width:1.0000000px;stroke-linecap:butt;stroke-linejoin:miter;stroke-opacity:1.0000000"
       d="M 36.419333,69.605348 C 39.171518,68.789383 40.934799,71.179646 42.986187,72.230322 C 45.764829,73.490430 48.906520,73.632391 51.556141,75.198028 C 53.144467,76.624004 55.929821,76.814729 56.500963,79.113365 C 56.573611,82.087747 60.621610,82.149577 62.570357,83.703557 C 65.626470,85.170857 63.385101,89.082937 61.252075,90.312607 C 59.211017,91.684497 57.605834,93.636197 57.439510,96.173157 C 57.299810,98.484077 56.038310,101.57809 53.242094,101.27992 C 51.117151,100.67251 48.912296,100.97765 48.458970,103.48162 C 47.253495,106.14134 45.626955,108.64056 44.882338,111.49195 C 44.142994,114.21166 47.646150,115.14319 47.944443,117.49040 C 49.506932,119.14959 48.569965,123.26058 45.884879,121.44054 C 44.235058,119.83709 41.955081,118.65312 41.281940,116.29838 C 40.162530,114.29680 38.952907,112.34237 38.171566,110.15547 C 37.038452,107.93626 35.624952,105.87463 34.523627,103.64190 C 32.760381,100.79647 31.436279,97.632467 31.229293,94.256087 C 30.967671,91.677967 29.543392,89.290597 30.115713,86.633967 C 30.284408,83.455817 30.062830,80.228557 30.669777,77.083337 C 32.080190,75.153197 33.273464,73.069710 34.694344,71.158531 C 35.206152,70.576141 35.781068,70.046793 36.419333,69.605348 z "
       id="path14348" />
    <path
       style="fill:#000000;fill-opacity:0.39215687;fill-rule:evenodd;stroke:none;stroke-width:1.0000000px;stroke-linecap:butt;stroke-linejoin:miter;stroke-opacity:1.0000000"
       d="M 101.72438,27.534541 C 99.617960,33.050831 92.972860,32.826270 88.410770,34.809343 C 84.597490,36.860328 83.297940,43.507182 85.226150,46.415468 C 88.979790,48.909967 85.092380,51.499094 83.749810,52.435785 C 82.966190,56.987327 80.238710,60.142716 75.925630,62.068903 C 70.377900,64.228223 67.249350,69.117698 71.883870,73.914820 C 74.818510,77.160472 78.230950,81.287582 83.003300,81.150419 C 87.815090,79.569415 92.669550,81.114891 91.825190,87.007845 C 93.096830,91.941678 93.597110,97.220474 94.221440,102.36119 C 95.563980,106.53713 97.650090,111.53197 102.92320,111.17754 C 108.01240,110.36921 107.47842,103.63853 109.78041,100.00751 C 111.13357,94.723213 121.40355,98.705707 119.14704,92.150873 C 121.97786,88.732995 124.14601,84.469600 127.65107,81.811143 C 129.35747,82.302582 130.17313,87.577014 132.54894,83.780076 C 133.04321,80.709208 129.49871,76.758736 128.24928,76.482406 C 131.72293,73.585154 134.76620,69.913595 135.35738,65.276062 C 137.51678,60.373179 135.56501,55.399396 134.23394,50.613428 C 133.34118,44.481749 127.90635,40.935397 123.48855,37.348848 C 117.26145,32.281746 109.51086,29.233892 101.72438,27.534541 z "
       id="path15868"
       sodipodi:nodetypes="ccccccccccccccccccc" />
    <path
       style="fill:#000000;fill-opacity:0.39215687;fill-rule:evenodd;stroke:none;stroke-width:1.0000000px;stroke-linecap:butt;stroke-linejoin:miter;stroke-opacity:1.0000000"
       d="M 32.886679,72.934730 C 29.343049,70.655745 30.709309,65.791197 32.355429,62.738398 C 34.325389,58.073741 37.698999,54.177587 39.779459,49.565382 C 41.894979,46.335597 44.968459,43.888727 47.672289,41.184885 C 50.938829,38.500657 54.065679,35.584698 57.469269,33.104585 C 61.660059,31.071255 65.741969,28.361338 70.543639,28.158737 C 75.371299,27.358852 79.941609,25.521257 84.696479,24.461879 C 88.498029,23.878612 92.368409,24.399391 96.091849,25.231151 C 98.936659,24.148900 103.38116,27.582324 99.237129,29.412818 C 95.596499,31.590951 91.317819,32.213781 87.412049,33.737927 C 84.086919,34.690702 83.737519,28.226849 80.440989,30.658633 C 79.034919,32.111420 75.108089,35.286845 75.684519,31.079329 C 73.773809,28.867364 70.533479,34.524201 74.139319,35.180553 C 76.230879,36.307917 81.986229,35.555444 80.443439,39.430943 C 78.808529,41.714064 73.655899,39.892773 73.315809,41.599362 C 73.715009,44.954384 67.384679,43.793469 67.563079,41.118862 C 66.121499,42.682826 66.281379,45.996324 63.137579,45.891913 C 60.081319,46.638097 57.394449,48.213164 54.660489,49.689236 C 51.437349,51.413153 47.979459,52.872355 45.122869,55.162306 C 43.314099,57.530585 38.985659,60.269456 40.635429,63.564461 C 42.349649,67.762897 35.704309,64.826462 37.532419,61.977579 C 37.756089,60.990310 39.684009,55.975258 37.870809,58.747874 C 36.361199,61.961717 35.445079,65.510224 34.653539,68.926136 C 34.640179,70.381436 34.806489,72.620854 32.886679,72.934730 z "
       id="path15108" />
    <path
       style="fill:#b43535;fill-opacity:1.0000000;fill-rule:evenodd;stroke:#b43535;stroke-width:1.0000000px;stroke-linecap:butt;stroke-linejoin:miter;stroke-opacity:1.0000000"
       d="M 99.120274,24.864571 C 97.013851,30.380861 90.368748,30.156300 85.806662,32.139373 C 81.993380,34.190358 80.693836,40.837212 82.622040,43.745498 C 86.375685,46.239997 82.488268,48.829124 81.145697,49.765815 C 80.362079,54.317357 77.634600,57.472746 73.321523,59.398933 C 67.773789,61.558253 64.645237,66.447728 69.279762,71.244850 C 72.214403,74.490502 75.626844,78.617612 80.399189,78.480449 C 85.210979,76.899445 90.065438,78.444921 89.221078,84.337875 C 90.492726,89.271708 90.992998,94.550504 91.617333,99.691217 C 92.959871,103.86716 95.045986,108.86200 100.31910,108.50757 C 105.40830,107.69924 104.87432,100.96856 107.17631,97.337536 C 108.52947,92.053243 118.79945,96.035737 116.54294,89.480903 C 119.37376,86.063025 121.54191,81.799630 125.04697,79.141173 C 126.75337,79.632612 127.56903,84.907044 129.94484,81.110106 C 130.43911,78.039238 126.89461,74.088766 125.64518,73.812436 C 129.11883,70.915184 132.16210,67.243625 132.75328,62.606092 C 134.91268,57.703209 132.96091,52.729426 131.62984,47.943458 C 130.73708,41.811779 125.30225,38.265427 120.88445,34.678878 C 114.65735,29.611776 106.90676,26.563922 99.120274,24.864571 z "
       id="path1376"
       sodipodi:nodetypes="ccccccccccccccccccc" />
    <path
       style="fill:#35b4b3;fill-opacity:1.0000000;fill-rule:evenodd;stroke:#35b4b3;stroke-width:1.0000000px;stroke-linecap:butt;stroke-linejoin:miter;stroke-opacity:1.0000000"
       d="M 32.505517,69.862105 C 35.257702,69.046140 37.020983,71.436403 39.072371,72.487079 C 41.851013,73.747187 44.992704,73.889148 47.642325,75.454785 C 49.230651,76.880761 52.016005,77.071486 52.587147,79.370122 C 52.659795,82.344506 56.707794,82.406335 58.656541,83.960317 C 61.712654,85.427616 59.471285,89.339690 57.338259,90.569365 C 55.297201,91.941257 53.692018,93.892950 53.525694,96.429917 C 53.385994,98.740829 52.124494,101.83486 49.328278,101.53669 C 47.203335,100.92928 44.998480,101.23442 44.545154,103.73839 C 43.339679,106.39811 41.713139,108.89733 40.968522,111.74872 C 40.229178,114.46843 43.732334,115.39996 44.030627,117.74717 C 45.593116,119.40636 44.656149,123.51735 41.971063,121.69731 C 40.321242,120.09386 38.041265,118.90989 37.368124,116.55515 C 36.248714,114.55357 35.039091,112.59914 34.257750,110.41224 C 33.124636,108.19303 31.711136,106.13140 30.609811,103.89867 C 28.846565,101.05324 27.522463,97.889220 27.315477,94.512844 C 27.053855,91.934727 25.629576,89.547356 26.201897,86.890719 C 26.370592,83.712572 26.149014,80.485312 26.755961,77.340094 C 28.166374,75.409954 29.359648,73.326467 30.780528,71.415288 C 31.292336,70.832898 31.867252,70.303550 32.505517,69.862105 z "
       id="path1362" />
    <path
       style="fill:#74b435;fill-opacity:1.0000000;fill-rule:evenodd;stroke:#74b435;stroke-width:1.0000000px;stroke-linecap:butt;stroke-linejoin:miter;stroke-opacity:1.0000000"
       d="M 30.640238,70.612879 C 27.096610,68.333894 28.462864,63.469346 30.108984,60.416547 C 32.078945,55.751890 35.452558,51.855736 37.533015,47.243531 C 39.648533,44.013746 42.722014,41.566876 45.425842,38.863034 C 48.692387,36.178806 51.819238,33.262847 55.222825,30.782734 C 59.413615,28.749404 63.495529,26.039487 68.297197,25.836886 C 73.124859,25.037001 77.695167,23.199406 82.450040,22.140028 C 86.251586,21.556761 90.121970,22.077540 93.845408,22.909300 C 96.690211,21.827049 101.13471,25.260473 96.990682,27.090967 C 93.350055,29.269100 89.071379,29.891930 85.165601,31.416076 C 81.840476,32.368851 81.491075,25.904998 78.194547,28.336782 C 76.788471,29.789569 72.861644,32.964994 73.438079,28.757478 C 71.527370,26.545513 68.287040,32.202350 71.892879,32.858702 C 73.984440,33.986066 79.739787,33.233593 78.196996,37.109092 C 76.562087,39.392213 71.409458,37.570922 71.069367,39.277511 C 71.468564,42.632533 65.138233,41.471618 65.316634,38.797011 C 63.875056,40.360975 64.034933,43.674473 60.891139,43.570062 C 57.834880,44.316246 55.148003,45.891313 52.414047,47.367385 C 49.190902,49.091302 45.733011,50.550504 42.876429,52.840455 C 41.067654,55.208734 36.739212,57.947605 38.388988,61.242610 C 40.103208,65.441046 33.457867,62.504611 35.285971,59.655728 C 35.509646,58.668459 37.437563,53.653407 35.624365,56.426023 C 34.114752,59.639866 33.198639,63.188373 32.407092,66.604285 C 32.393734,68.059585 32.560044,70.299003 30.640238,70.612879 z "
       id="path1368" />
    <path
       style="fill:none;fill-opacity:0.75000000;fill-rule:evenodd;stroke:#000000;stroke-width:1.0000000px;stroke-linecap:butt;stroke-linejoin:miter;stroke-opacity:1.0000000"
       d="M 99.566080,25.270135 C 99.295704,25.270135 99.295704,25.270135 99.566080,25.270135 z "
       id="path1372" />
    <path
       style="fill:#000000;fill-opacity:0.39215687;fill-rule:evenodd;stroke:none;stroke-width:1.0000000px;stroke-linecap:butt;stroke-linejoin:miter;stroke-opacity:1.0000000"
       d="M 132.26268,62.015793 C 131.33785,62.478208 132.07228,67.899479 133.07540,67.648699 C 133.91479,67.438852 130.57597,72.799197 131.31389,72.430236 C 132.33757,71.918396 131.58390,74.323594 131.51667,74.458059 C 131.10109,75.289226 130.93144,75.987836 130.70554,76.891445 C 130.42560,78.011218 131.27765,78.477462 131.71945,78.919268 C 132.36969,79.569509 133.60794,78.852710 134.15284,78.716486 C 134.91841,78.525093 135.89216,77.868258 136.38344,77.499792 C 137.11672,76.949836 137.27118,76.447579 138.00570,76.080316 C 139.17928,75.493526 139.88920,76.544338 140.23631,76.891445 C 140.69729,77.352425 139.70395,79.020869 139.62796,79.324832 C 139.43155,80.110462 138.92090,80.843020 138.41127,81.352655 C 138.01391,81.750008 137.64000,82.895191 137.39736,83.380477 C 137.06015,84.054895 136.53540,84.698821 136.18066,85.408300 C 135.56485,86.639919 135.47497,86.122079 134.76119,85.408300 C 134.25423,84.901344 134.65980,83.481868 134.15284,82.974913 C 133.67144,82.493514 131.99807,82.854564 131.51667,82.974913 C 130.67960,83.184180 131.00581,84.784331 131.11111,85.205517 C 131.33443,86.098809 132.05430,86.351489 132.53058,86.827779 C 133.07516,87.372349 133.99471,87.559839 134.55840,87.841689 C 135.29677,88.210869 136.60048,87.990209 137.19457,87.841689 C 138.40733,87.538499 138.52940,87.605419 139.01961,86.624989 C 139.37619,85.911839 139.44828,84.910318 139.62796,84.191606 C 139.86771,83.232610 140.06947,82.700232 140.43909,81.961001 C 140.79684,81.245494 141.14010,80.558977 141.45300,79.933179 C 142.12834,78.582507 142.54366,80.442940 142.66969,80.947090 C 142.89076,81.831355 142.66969,83.071952 142.66969,83.988824 C 142.66969,85.539789 142.87528,85.508290 143.88639,85.002735 C 144.08168,84.905088 143.88639,82.289099 143.88639,81.961001 C 143.88639,81.002589 144.08917,79.978882 144.08917,78.919268 C 144.08917,77.794485 143.88639,77.011354 143.88639,76.080316 C 143.88639,75.057442 143.27804,74.651444 143.27804,73.444147 C 143.27804,72.403729 143.07133,71.603382 142.87248,70.807978 C 142.64130,69.883262 142.65071,68.907019 142.46691,68.171809 C 142.21965,67.182780 142.07695,66.611957 141.85856,65.738422 C 141.62577,64.807229 141.26159,64.364421 141.04744,63.507818 C 140.86404,62.774214 140.22473,62.244804 140.03352,61.479995 C 139.76369,60.400650 139.42518,59.718016 139.42518,58.641044 C 139.42518,57.685532 139.01961,57.074677 139.01961,56.004875 C 139.01961,55.360646 138.23747,54.440582 138.00570,53.977052 C 137.64356,53.252772 137.13931,52.502313 136.58623,51.949230 C 136.11981,51.482809 135.87503,50.526837 135.57232,49.921407 C 135.20683,49.190433 134.62157,48.767877 134.15284,48.299150 C 133.53328,47.679594 133.25558,47.199106 132.73336,46.676892 C 132.11381,46.057336 131.83610,45.576848 131.31389,45.054634 C 130.67906,44.419809 130.41492,43.996801 129.69163,43.635158 C 128.91174,43.245211 128.56561,42.711924 128.06937,42.215682"
       id="path16628"
       sodipodi:nodetypes="ccccccccccccccccccccccccccccccccccccccccccccccc" />
    <path
       style="fill:#80a7d8;fill-opacity:1.0000000;fill-rule:evenodd;stroke:#80a7d8;stroke-width:1.0000000px;stroke-linecap:butt;stroke-linejoin:miter;stroke-opacity:1.0000000"
       d="M 86.794185,54.455453 C 86.997041,54.683379 88.546135,54.470778 89.629750,54.470778 C 90.786865,54.470778 91.538955,54.694601 92.265919,54.876342 C 93.247648,55.121774 93.479595,54.861017 94.559603,54.861017 C 95.994708,54.861017 95.138581,53.693359 94.902088,53.456867 C 94.395133,52.949911 93.989568,52.341564 93.482613,51.834609 C 93.013257,51.365253 91.781868,51.409422 91.049226,51.226262 C 90.110567,50.991597 89.196802,51.030326 88.413057,51.226262 C 87.610664,51.426860 87.181673,52.327354 86.790799,52.848520 C 86.405306,53.362510 86.576078,53.660997 86.794185,54.455453 z "
       id="path1378"
       sodipodi:nodetypes="cccccccccc" />
    <path
       style="fill:#80a7d8;fill-opacity:1.0000000;fill-rule:evenodd;stroke:#80a7d8;stroke-width:1.0000000px;stroke-linecap:butt;stroke-linejoin:miter;stroke-opacity:1.0000000"
       d="M 99.578018,54.310584 C 99.122186,54.109546 97.974775,54.658083 97.132693,55.079124 C 96.063969,55.613487 96.456726,55.822653 97.538258,56.093036 C 98.353587,56.296868 98.616616,56.936388 99.363298,57.309729 C 100.25389,57.755027 101.03355,57.715294 102.20225,57.715294 C 102.72984,57.715294 103.36630,56.348464 103.62172,56.093036 C 104.36501,55.349752 104.55146,55.353647 105.64955,55.079124 C 106.55802,54.852006 107.20765,55.484689 108.28572,55.484689 C 109.69633,55.484689 108.51623,53.890164 108.28572,53.659649 C 107.68209,53.056018 106.65174,53.254084 105.64955,53.254084 C 104.66788,53.254084 103.83292,53.454764 103.01338,53.659649 C 102.23367,53.854576 101.07029,54.697658 100.82198,54.712762 C 100.43090,54.826507 99.850652,54.406080 99.578018,54.310584 z "
       id="path1380"
       sodipodi:nodetypes="ccccccccccccc" />
    <path
       style="fill:#80a7d8;fill-opacity:1.0000000;fill-rule:evenodd;stroke:#80a7d8;stroke-width:1.0000000px;stroke-linecap:butt;stroke-linejoin:miter;stroke-opacity:1.0000000"
       d="M 110.51632,49.198439 C 109.68813,49.612533 109.39205,50.239941 107.88015,50.617915 C 106.82752,50.881073 106.10382,51.289134 107.47459,51.631826 C 108.52520,51.894479 109.58646,51.488411 110.11076,51.226262 C 110.95570,50.803791 110.73383,50.285981 110.51632,49.198439 z "
       id="path1382" />
    <path
       style="fill:#000000;fill-opacity:0.39215687;fill-rule:evenodd;stroke:none;stroke-width:1.0000000px;stroke-linecap:butt;stroke-linejoin:miter;stroke-opacity:1.0000000"
       d="M 116.49508,97.616052 C 116.98344,98.424732 115.82226,99.200142 115.75606,100.05922 C 115.53050,101.02291 114.84978,101.73577 114.16601,102.40440 C 113.47567,103.23867 112.79644,104.14361 111.68154,104.42089 C 110.93337,104.99557 109.39309,105.42170 109.56951,103.94823 C 109.70119,102.82658 110.65919,102.08185 111.03090,101.05774 C 111.84817,99.946062 112.78081,98.898492 113.79279,97.965242 C 114.58701,97.211692 115.56789,96.939402 116.49508,97.616052 z "
       id="path17388" />
    <path
       style="fill:#7135b4;fill-opacity:1.0000000;fill-rule:evenodd;stroke:#7135b4;stroke-width:1.0000000px;stroke-linecap:butt;stroke-linejoin:miter;stroke-opacity:1.0000000"
       d="M 114.57197,96.243919 C 115.06033,97.052605 113.89915,97.828010 113.83295,98.687096 C 113.60739,99.650788 112.92667,100.36364 112.24290,101.03227 C 111.55256,101.86654 110.87333,102.77148 109.75843,103.04876 C 109.01026,103.62344 107.46998,104.04957 107.64640,102.57610 C 107.77808,101.45445 108.73608,100.70972 109.10779,99.685618 C 109.92506,98.573938 110.85770,97.526364 111.86968,96.593110 C 112.66390,95.839568 113.64478,95.567277 114.57197,96.243919 z "
       id="path1384" />
    <path
       style="fill:#000000;fill-opacity:0.39215687;fill-rule:evenodd;stroke:none;stroke-width:1.0000000px;stroke-linecap:butt;stroke-linejoin:miter;stroke-opacity:1.0000000"
       d="M 123.66602,103.09464 C 123.91155,103.29340 123.29827,102.94119 123.16357,103.14990 C 122.61953,103.84208 121.93236,104.47009 121.63899,105.32091 C 121.48351,105.82922 121.63769,106.37214 121.50489,106.88015 C 121.25719,107.55961 120.40156,107.81745 120.25394,108.55406 C 120.13048,109.08676 120.14562,109.65676 120.28043,110.18508 C 120.48761,110.78247 120.95795,111.24866 121.44811,111.62559 C 121.98583,111.79636 122.09693,111.03145 122.14540,110.65475 C 122.26905,109.82437 122.08145,108.94791 122.37965,108.14681 C 122.67858,107.51428 123.50033,107.76323 123.67875,107.05746 C 123.94410,106.32486 124.82615,105.61389 124.92985,104.85742 C 125.07041,104.42678 123.63231,103.72113 123.56658,103.35646 C 123.43290,103.35152 123.38262,102.98668 123.66602,103.09464 z "
       id="path18148"
       sodipodi:nodetypes="ccccccccccccc" />
    <path
       style="fill:#7135b4;fill-opacity:1.0000000;fill-rule:evenodd;stroke:#7135b4;stroke-width:1.0000000px;stroke-linecap:butt;stroke-linejoin:miter;stroke-opacity:1.0000000"
       d="M 121.95718,102.18990 C 122.20271,102.38866 121.58943,102.03645 121.45473,102.24516 C 120.91069,102.93734 120.22352,103.56535 119.93015,104.41617 C 119.77467,104.92448 119.92885,105.46740 119.79605,105.97541 C 119.54835,106.65487 118.69272,106.91271 118.54510,107.64932 C 118.42164,108.18202 118.43678,108.75202 118.57159,109.28034 C 118.77877,109.87773 119.24911,110.34392 119.73927,110.72085 C 120.27699,110.89162 120.38809,110.12671 120.43656,109.75001 C 120.56021,108.91963 120.37261,108.04317 120.67081,107.24207 C 120.96974,106.60954 121.79149,106.85849 121.96991,106.15272 C 122.23526,105.42012 123.11731,104.70915 123.22101,103.95268 C 123.36157,103.52204 121.92347,102.81639 121.85774,102.45172 C 121.72406,102.44678 121.67378,102.08194 121.95718,102.18990 z "
       id="path1386"
       sodipodi:nodetypes="ccccccccccccc" />
    <path
       style="fill:#000000;fill-opacity:0.39215687;fill-rule:evenodd;stroke:none;stroke-width:1.0000000px;stroke-linecap:butt;stroke-linejoin:miter;stroke-opacity:1.0000000"
       d="M 133.84004,93.988817 C 134.04386,92.729817 132.43390,91.426387 131.31854,92.234607 C 130.79963,93.003887 129.85863,93.272257 129.16792,93.860277 C 128.13440,94.540977 129.12895,95.451557 129.78558,95.915357 C 130.60957,97.093347 129.84168,98.546287 129.96296,99.845781 C 130.21017,100.88218 130.24814,101.95123 130.16781,103.01355 C 130.10981,104.30829 130.13479,105.92531 131.36785,106.70016 C 132.84841,107.67349 135.00732,107.38408 136.13518,108.92993 C 137.09443,110.01169 138.78297,109.65377 139.78962,108.83732 C 141.48427,107.57845 141.72729,105.33867 142.22072,103.44230 C 142.57298,102.35428 142.91174,101.26070 143.36966,100.21056 C 143.97337,98.911307 144.67969,97.629327 144.98884,96.223267 C 145.12456,95.404547 144.35916,94.460687 143.49298,94.760567 C 142.54753,95.159887 142.10959,96.341877 140.99049,96.475237 C 140.05518,96.819057 139.10020,95.981017 139.26445,95.009087 C 139.42437,93.530517 137.58640,92.482977 136.34110,93.206747 C 135.70532,93.666287 135.09430,94.592037 134.17122,94.188187 C 134.05122,94.139697 133.93964,94.071267 133.84004,93.988817 z "
       id="path18908" />
    <path
       style="fill:#7135b4;fill-opacity:1.0000000;fill-rule:evenodd;stroke:#7135b4;stroke-width:1.0000000px;stroke-linecap:butt;stroke-linejoin:miter;stroke-opacity:1.0000000"
       d="M 131.47714,93.196510 C 131.68096,91.937508 130.07100,90.634075 128.95564,91.442298 C 128.43673,92.211581 127.49573,92.479949 126.80502,93.067967 C 125.77150,93.748673 126.76605,94.659252 127.42268,95.123048 C 128.24667,96.301037 127.47878,97.753981 127.60006,99.053472 C 127.84727,100.08987 127.88524,101.15892 127.80491,102.22124 C 127.74691,103.51598 127.77189,105.13300 129.00495,105.90785 C 130.48551,106.88118 132.64442,106.59177 133.77228,108.13762 C 134.73153,109.21938 136.42007,108.86146 137.42672,108.04501 C 139.12137,106.78614 139.36439,104.54636 139.85782,102.64999 C 140.21008,101.56197 140.54884,100.46839 141.00676,99.418247 C 141.61047,98.119000 142.31679,96.837015 142.62594,95.430961 C 142.76166,94.612239 141.99626,93.668378 141.13008,93.968256 C 140.18463,94.367578 139.74669,95.549568 138.62759,95.682929 C 137.69228,96.026745 136.73730,95.188708 136.90155,94.216782 C 137.06147,92.738208 135.22350,91.690667 133.97820,92.414444 C 133.34242,92.873976 132.73140,93.799729 131.80832,93.395875 C 131.68832,93.347387 131.57674,93.278960 131.47714,93.196510 z "
       id="path1388" />
    <path
       style="fill:#000000;fill-opacity:0.39215687;fill-rule:evenodd;stroke:none;stroke-width:1.0000000px;stroke-linecap:butt;stroke-linejoin:miter;stroke-opacity:1.0000000"
       d="M 132.10268,86.871820 C 131.56806,87.356050 130.77223,87.467590 130.31636,88.051240 C 130.14738,88.348390 129.95039,88.636250 129.84037,88.961670 C 129.70624,89.415310 129.81967,90.004300 130.27029,90.237480 C 130.63050,90.440440 131.09466,90.486120 131.46125,90.272910 C 131.90837,90.033930 132.21346,89.614940 132.57773,89.275660 C 132.92348,88.910210 132.93023,88.331770 132.70599,87.901780 C 132.56710,87.605320 132.30050,87.389970 132.18711,87.078540 C 132.15679,87.010550 132.12905,86.941420 132.10268,86.871820 z "
       id="path21944" />
    <path
       style="fill:#7135b4;fill-opacity:1.0000000;fill-rule:evenodd;stroke:#7135b4;stroke-width:1.0000000px;stroke-linecap:butt;stroke-linejoin:miter;stroke-opacity:1.0000000"
       d="M 130.59177,86.713158 C 130.05715,87.197394 129.26132,87.308935 128.80545,87.892586 C 128.63647,88.189737 128.43948,88.477591 128.32946,88.803009 C 128.19533,89.256652 128.30876,89.845643 128.75938,90.078819 C 129.11959,90.281781 129.58375,90.327464 129.95034,90.114257 C 130.39746,89.875272 130.70255,89.456285 131.06682,89.116998 C 131.41257,88.751548 131.41932,88.173110 131.19508,87.743121 C 131.05619,87.446660 130.78959,87.231308 130.67620,86.919884 C 130.64588,86.851891 130.61814,86.782766 130.59177,86.713158 z "
       id="path1390" />
    <path
       style="fill:#80a7d8;fill-opacity:1.0000000;fill-rule:evenodd;stroke:#80a7d8;stroke-width:1.0000000px;stroke-linecap:butt;stroke-linejoin:miter;stroke-opacity:1.0000000"
       d="M 114.77475,64.001543 C 115.11479,64.600970 115.87036,65.705501 116.39701,66.232148 C 117.02395,66.859095 117.40089,67.205959 117.61370,68.057188 C 117.78141,68.728015 118.45838,69.510212 118.83039,69.882228 C 119.18241,70.234248 119.64109,71.503622 119.84430,71.910050 C 120.24173,72.704909 120.34178,73.513354 120.65543,74.140655 C 121.22296,75.275710 120.90466,75.403790 121.66934,76.168477 C 122.84948,77.348609 122.46231,75.321032 122.27769,74.951784 C 121.86737,74.131143 121.61000,73.616408 121.26378,72.923962 C 120.83965,72.075702 120.61658,71.629568 120.24987,70.896139 C 119.86019,70.116789 119.33447,69.470908 119.03318,68.868317 C 118.60697,68.015906 118.24026,67.724472 118.01926,66.840494 C 117.83926,66.120469 116.93731,65.352980 116.59979,65.015454 C 116.11661,64.532277 115.57666,64.322308 114.77475,64.001543 z "
       id="path1392" />
    <path
       style="fill:#000000;fill-opacity:0.39215687;fill-rule:evenodd;stroke:none;stroke-width:1.0000000px;stroke-linecap:butt;stroke-linejoin:miter;stroke-opacity:1.0000000"
       d="M 62.726420,135.25144 C 64.430700,136.22329 65.811491,137.76975 67.812220,138.22773 C 69.986920,138.97771 72.062631,140.02607 74.368326,140.32391 C 76.640812,140.35586 78.489863,141.56356 80.629279,142.13565 C 83.442576,142.94252 86.422076,142.22081 89.251895,142.93981 C 91.413777,143.08941 93.427156,141.99417 95.585824,141.92911 C 98.496719,141.63091 101.47561,141.15191 103.99590,139.55867 C 105.20726,139.47495 106.77284,136.99889 104.50765,137.67387 C 102.55867,137.87840 100.43661,137.79282 98.671631,136.87608 C 97.271167,135.66864 95.500496,135.17124 93.674855,135.25351 C 90.255126,135.24104 86.835329,135.26099 83.416142,135.25328 C 80.690402,135.24993 78.166025,133.41151 75.404769,134.19660 C 74.712136,135.95531 72.067374,136.41482 70.652113,135.36995 C 69.806988,134.26197 71.282057,131.48607 68.930714,132.44238 C 66.940768,132.32832 66.292165,134.31475 64.769146,134.99074 C 64.113602,135.20920 63.414585,135.27895 62.726420,135.25144 z "
       id="path22704" />
    <path
       style="fill:#7135b4;fill-opacity:1.0000000;fill-rule:evenodd;stroke:#7135b4;stroke-width:1.0000000px;stroke-linecap:butt;stroke-linejoin:miter;stroke-opacity:1.0000000"
       d="M 58.886122,137.49105 C 60.590402,138.46290 61.971193,140.00936 63.971922,140.46734 C 66.146622,141.21732 68.222333,142.26568 70.528028,142.56352 C 72.800514,142.59547 74.649565,143.80317 76.788981,144.37526 C 79.602278,145.18213 82.581778,144.46042 85.411597,145.17942 C 87.573479,145.32902 89.586858,144.23378 91.745526,144.16872 C 94.656421,143.87052 97.635306,143.39152 100.15560,141.79828 C 101.36696,141.71456 102.93254,139.23850 100.66735,139.91348 C 98.718371,140.11801 96.596312,140.03243 94.831333,139.11569 C 93.430869,137.90825 91.660198,137.41085 89.834557,137.49312 C 86.414828,137.48065 82.995031,137.50060 79.575844,137.49289 C 76.850104,137.48954 74.325727,135.65112 71.564471,136.43621 C 70.871838,138.19492 68.227076,138.65443 66.811815,137.60956 C 65.966690,136.50158 67.441759,133.72568 65.090416,134.68199 C 63.100470,134.56793 62.451867,136.55436 60.928848,137.23035 C 60.273304,137.44881 59.574287,137.51856 58.886122,137.49105 z "
       id="path1394" />
    <path
       style="fill:#b43535;fill-opacity:1.0000000;fill-rule:evenodd;stroke:#b43535;stroke-width:1.0000000px;stroke-linecap:butt;stroke-linejoin:miter;stroke-opacity:1.0000000"
       d="M 124.93557,71.992115 C 124.01074,72.454530 126.97419,71.634548 127.97731,71.383768 C 128.81670,71.173921 129.26721,70.738818 130.00513,70.369857 C 131.02881,69.858017 130.27514,72.263215 130.20791,72.397680 C 129.79233,73.228847 129.62268,73.927457 129.39678,74.831066 C 129.11684,75.950839 129.96889,76.417083 130.41069,76.858889 C 131.06093,77.509130 132.29918,76.792331 132.84408,76.656107 C 133.60965,76.464714 134.58340,75.807879 135.07468,75.439413 C 135.80796,74.889457 135.96242,74.387200 136.69694,74.019937 C 137.87052,73.433147 138.58044,74.483959 138.92755,74.831066 C 139.38853,75.292046 138.39519,76.960490 138.31920,77.264453 C 138.12279,78.050083 137.61214,78.782641 137.10251,79.292276 C 136.70515,79.689629 136.33124,80.834812 136.08860,81.320098 C 135.75139,81.994516 135.22664,82.638442 134.87190,83.347921 C 134.25609,84.579536 134.16621,84.061702 133.45243,83.347921 C 132.94547,82.840965 133.35104,81.421489 132.84408,80.914534 C 132.36268,80.433135 130.68931,80.794185 130.20791,80.914534 C 129.37084,81.123801 129.69705,82.723952 129.80235,83.145138 C 130.02567,84.038431 130.74554,84.291112 131.22182,84.767396 C 131.76640,85.311971 132.68595,85.499460 133.24964,85.781307 C 133.98801,86.150491 135.29172,85.929830 135.88581,85.781307 C 137.09857,85.478119 137.22064,85.545044 137.71085,84.564614 C 138.06743,83.851464 138.13952,82.849939 138.31920,82.131227 C 138.55895,81.172231 138.76071,80.639853 139.13033,79.900622 C 139.48808,79.185115 139.83134,78.498598 140.14424,77.872800 C 140.81958,76.522128 141.23490,78.382561 141.36093,78.886711 C 141.58200,79.770976 141.36093,81.011573 141.36093,81.928445 C 141.36093,83.479412 141.56652,83.447911 142.57763,82.942356 C 142.77292,82.844709 142.57763,80.228720 142.57763,79.900622 C 142.57763,78.942210 142.78041,77.918503 142.78041,76.858889 C 142.78041,75.734106 142.57763,74.950975 142.57763,74.019937 C 142.57763,72.997063 141.96928,72.591065 141.96928,71.383768 C 141.96928,70.343350 141.76257,69.543003 141.56372,68.747599 C 141.33254,67.822883 141.34195,66.846640 141.15815,66.111430 C 140.91089,65.122401 140.76819,64.551578 140.54980,63.678043 C 140.31701,62.746850 139.95283,62.304042 139.73868,61.447439 C 139.55528,60.713835 138.91597,60.184425 138.72476,59.419616 C 138.45493,58.340271 138.11642,57.657637 138.11642,56.580665 C 138.11642,55.625153 137.71085,55.014298 137.71085,53.944496 C 137.71085,53.300267 136.92871,52.380203 136.69694,51.916673 C 136.33480,51.192393 135.83055,50.441934 135.27747,49.888851 C 134.81105,49.422430 134.56627,48.466458 134.26356,47.861028 C 133.89807,47.130054 133.31281,46.707498 132.84408,46.238771 C 132.22452,45.619215 131.94682,45.138727 131.42460,44.616513 C 130.80505,43.996957 130.52734,43.516469 130.00513,42.994255 C 129.37030,42.359430 129.10616,41.936422 128.38287,41.574779 C 127.60298,41.184832 127.25685,40.651545 126.76061,40.155303"
       id="path1396" />
    <path
       style="fill:#000000;fill-opacity:0.39215687;fill-rule:evenodd;stroke:none;stroke-width:1.0000000px;stroke-linecap:butt;stroke-linejoin:miter;stroke-opacity:1.0000000"
       d="M 88.450089,50.705345 C 88.090296,50.810056 87.874544,50.839385 87.525254,51.137339 C 87.295351,51.368266 87.098190,51.455118 86.956588,51.715335 C 86.630401,52.046704 86.480634,52.465366 86.194347,52.827837 C 86.032383,53.266275 86.040904,53.615308 86.153224,54.001495 C 86.263612,54.349386 86.276230,54.713524 86.496125,54.885785 C 86.723348,55.058393 87.071873,55.089215 87.348687,55.033103 C 87.588468,55.056507 88.056825,55.028656 88.337822,55.026164 C 88.780257,55.026326 88.699516,55.002413 89.212195,54.980968 C 89.325650,54.792593 89.398044,54.633001 89.390646,54.347588 C 89.502920,54.090791 89.694031,53.742685 89.890526,53.429159 C 90.271029,53.081669 90.663115,52.889796 90.751590,52.472450 C 91.015374,52.015009 92.554368,51.499709 92.622372,50.957497 C 91.919060,50.897061 90.644893,50.617613 90.031169,50.570550 C 89.456951,50.550493 89.093856,50.580950 88.588722,50.698175 C 88.543270,50.707490 88.496283,50.711518 88.450089,50.705345 z "
       id="path24234"
       sodipodi:nodetypes="cccccccccccccccc" />
    <path
       style="fill:#000000;fill-opacity:0.39215687;fill-rule:evenodd;stroke:none;stroke-width:1.0000000px;stroke-linecap:butt;stroke-linejoin:miter;stroke-opacity:1.0000000"
       d="M 99.038725,57.669559 C 99.580384,57.317398 100.01844,56.843060 100.64286,56.616236 C 101.47745,56.077107 102.28466,55.498334 103.15652,55.018802 C 103.71141,54.504075 104.49975,54.427746 105.22024,54.472038 C 105.92567,54.375491 106.61662,54.576518 107.32016,54.541490 C 107.94971,54.506168 108.57466,54.521892 109.20182,54.507915 C 109.54453,54.184291 108.86526,53.617106 108.65254,53.311563 C 108.06900,52.624036 107.09594,52.654790 106.27575,52.683468 C 105.37291,52.673644 104.46322,52.743818 103.59597,53.008802 C 102.99131,53.126336 102.37116,53.256356 101.85495,53.609319 C 101.29811,53.746639 100.82636,54.491739 100.26868,54.060357 C 99.733626,53.593832 98.994971,53.722922 98.368965,53.972482 C 97.687537,54.145309 97.174576,54.523796 96.551777,54.824570 C 95.792422,55.375805 95.840998,55.908640 96.393937,56.247261 C 97.065772,56.451090 97.869466,56.534230 99.047728,57.870673 L 99.071133,57.836738 L 99.068520,57.729149 L 99.038725,57.669559 z "
       id="path24998"
       sodipodi:nodetypes="cccccccccccccccccc" />
    <path
       style="fill:#000000;fill-opacity:0.39215687;fill-rule:evenodd;stroke:none;stroke-width:1.0000000px;stroke-linecap:butt;stroke-linejoin:miter;stroke-opacity:1.0000000"
       d="M 111.13619,49.820934 C 110.85029,50.371304 110.30787,50.744201 109.72004,50.910879 C 109.32491,51.038599 108.93803,51.204830 108.59146,51.433794 C 108.26935,51.559527 107.86045,51.620224 107.69172,51.964955 C 107.55053,52.274387 107.20456,52.095423 106.97739,52.029934 C 106.67895,51.905842 106.33716,51.716076 106.23925,51.377125 C 106.11184,51.037871 106.36072,50.712214 106.64174,50.545695 C 106.90916,50.343633 107.21631,50.330069 107.51302,50.190538 C 107.82934,50.107194 108.19277,50.034566 108.49048,49.887773 C 108.95993,49.717103 109.28716,49.342272 109.71454,49.097168 C 109.92456,48.913482 110.19055,48.808446 110.43726,48.675466 C 110.63795,48.520668 111.02194,48.191349 110.91820,48.781830 C 110.97345,49.098694 111.05307,49.407452 111.15059,49.710657 L 111.14933,49.766179 L 111.13619,49.820934 L 111.13619,49.820934 z "
       id="path26518"
       sodipodi:nodetypes="cccccccccccccccc" />
    <path
       style="fill:#000000;fill-opacity:0.39215687;fill-rule:evenodd;stroke:none;stroke-width:1.0000000px;stroke-linecap:butt;stroke-linejoin:miter;stroke-opacity:1.0000000"
       d="M 113.62119,63.014050 C 113.96160,63.641212 114.25058,64.301086 114.65456,64.889807 C 114.93412,65.390127 115.30011,65.667199 115.67854,66.168107 C 116.02034,66.716894 116.60370,67.150397 116.96835,67.673997 C 117.16307,68.180343 117.14548,68.429156 117.33035,68.777125 C 117.46321,69.259355 117.90447,69.645637 118.24177,69.982658 C 118.68832,70.337283 119.25679,70.134938 119.66966,69.804081 C 120.28369,69.457933 119.53246,68.926148 119.40753,68.504165 C 119.27172,68.068217 118.96235,67.732167 118.74797,67.335961 C 118.46108,66.828516 118.43046,66.195819 117.99928,65.769557 C 117.65279,65.294807 117.22004,64.891930 116.78795,64.502973 C 116.24879,63.991824 115.35376,63.693471 114.68182,63.403792 C 114.25931,63.234443 114.02290,63.174270 113.62119,63.014050 z "
       id="path27280"
       sodipodi:nodetypes="ccccccccccccc" />
    <path
       sodipodi:type="arc"
       style="fill:none;fill-opacity:1.0000000;fill-rule:evenodd;stroke:#80a7d8;stroke-width:0.33084270;stroke-miterlimit:4.0000000;stroke-opacity:1.0000000"
       id="path12775"
       sodipodi:cx="10.037721"
       sodipodi:cy="21.620054"
       sodipodi:rx="3.5486891"
       sodipodi:ry="4.0556450"
       d="M 13.586410 21.620054 A 3.5486891 4.0556450 0 1 1  6.4890316,21.620054 A 3.5486891 4.0556450 0 1 1  13.586410 21.620054 z"
       transform="matrix(17.55353,0.000000,0.000000,15.40018,-89.83791,-250.4282)" />
  </g>
</svg>
